rotated_Sprint_05400001_forces_filt10Hz.mot
version=1
nRows=48
nColumns=19
inDegrees=yes
endheader
time	R_ground_force_vx	R_ground_force_vy	R_ground_force_vz	R_ground_force_px	R_ground_force_py	R_ground_force_pz	R_ground_torque_x	R_ground_torque_y	R_ground_torque_z	L_ground_force_vx	L_ground_force_vy	L_ground_force_vz	L_ground_force_px	L_ground_force_py	L_ground_force_pz	L_ground_torque_x	L_ground_torque_y	L_ground_torque_z	
2.714500	  0.000000	  0.000000	  0.000000	  0.137913	  0.000000	 -0.509961	  0.000000	  0.000000	  0.000000	-97.510107	369.464990	 48.706252	  1.068491	  0.000000	 -0.405389	  0.000000	 -1.145944	  0.000000
2.715000	  0.000000	  0.000000	  0.000000	  0.139420	  0.000000	 -0.511037	  0.000000	  0.000000	  0.000000	-100.933633	385.077260	 50.367083	  1.066796	  0.000000	 -0.404416	  0.000000	 -1.238793	  0.000000
2.715500	  0.000000	  0.000000	  0.000000	  0.141022	  0.000000	 -0.511833	  0.000000	  0.000000	  0.000000	-104.409088	401.011835	 52.051431	  1.065159	  0.000000	 -0.403477	  0.000000	 -1.334629	  0.000000
2.716000	  0.000000	  0.000000	  0.000000	  0.142624	  0.000000	 -0.512628	  0.000000	  0.000000	  0.000000	-107.935165	417.267236	 53.758849	  1.063576	  0.000000	 -0.402571	  0.000000	 -1.433400	  0.000000
2.716500	  0.000000	  0.000000	  0.000000	  0.144226	  0.000000	 -0.513424	  0.000000	  0.000000	  0.000000	-111.510456	433.841596	 55.488861	  1.062044	  0.000000	 -0.401694	  0.000000	 -1.535056	  0.000000
2.717000	  0.000000	  0.000000	  0.000000	  0.145828	  0.000000	 -0.514219	  0.000000	  0.000000	  0.000000	-115.133447	450.732638	 57.240956	  1.060558	  0.000000	 -0.400845	  0.000000	 -1.639549	  0.000000
2.717500	  0.000000	  0.000000	  0.000000	  0.147429	  0.000000	 -0.515015	  0.000000	  0.000000	  0.000000	-118.802516	467.937665	 59.014582	  1.059115	  0.000000	 -0.400021	  0.000000	 -1.746832	  0.000000
2.718000	  0.000000	  0.000000	  0.000000	  0.149031	  0.000000	 -0.515811	  0.000000	  0.000000	  0.000000	-122.515931	485.453539	 60.809136	  1.057712	  0.000000	 -0.399221	  0.000000	 -1.856859	  0.000000
2.718500	  0.000000	  0.000000	  0.000000	  0.150633	  0.000000	 -0.516606	  0.000000	  0.000000	  0.000000	-126.271847	503.276666	 62.623953	  1.056347	  0.000000	 -0.398443	  0.000000	 -1.969580	  0.000000
2.719000	  0.000000	  0.000000	  0.000000	  0.152235	  0.000000	 -0.517402	  0.000000	  0.000000	  0.000000	-130.068297	521.402979	 64.458301	  1.055015	  0.000000	 -0.397685	  0.000000	 -2.084938	  0.000000
2.719500	  0.000000	  0.000000	  0.000000	  0.153837	  0.000000	 -0.518197	  0.000000	  0.000000	  0.000000	-133.903196	539.827920	 66.311364	  1.053716	  0.000000	 -0.396945	  0.000000	 -2.202873	  0.000000
2.720000	  0.000000	  0.000000	  0.000000	  0.155439	  0.000000	 -0.518993	  0.000000	  0.000000	  0.000000	-137.774330	558.546425	 68.182230	  1.052447	  0.000000	 -0.396223	  0.000000	 -2.323321	  0.000000
2.720500	  0.000000	  0.000000	  0.000000	  0.157156	  0.000000	 -0.519701	  0.000000	  0.000000	  0.000000	-141.679368	577.552901	 70.069875	  1.051205	  0.000000	 -0.395517	  0.000000	 -2.446219	  0.000000
2.721000	  0.000000	  0.000000	  0.000000	  0.158873	  0.000000	 -0.520409	  0.000000	  0.000000	  0.000000	-145.615860	596.841211	 71.973150	  1.049990	  0.000000	 -0.394826	  0.000000	 -2.571514	  0.000000
2.721500	  0.000000	  0.000000	  0.000000	  0.160589	  0.000000	 -0.521117	  0.000000	  0.000000	  0.000000	-149.581253	616.404657	 73.890773	  1.048798	  0.000000	 -0.394149	  0.000000	 -2.699165	  0.000000
2.722000	  0.000000	  0.000000	  0.000000	  0.162306	  0.000000	 -0.521825	  0.000000	  0.000000	  0.000000	-153.572902	636.235958	 75.821311	  1.047629	  0.000000	 -0.393485	  0.000000	 -2.829152	  0.000000
2.722500	  0.000000	  0.000000	  0.000000	  0.164023	  0.000000	 -0.522533	  0.000000	  0.000000	  0.000000	-157.588090	656.327233	 77.763180	  1.046481	  0.000000	 -0.392833	  0.000000	 -2.961482	  0.000000
2.723000	  0.000000	  0.000000	  0.000000	  0.165740	  0.000000	 -0.523240	  0.000000	  0.000000	  0.000000	-161.624045	676.670003	 79.714634	  1.045352	  0.000000	 -0.392192	  0.000000	 -3.096189	  0.000000
2.723500	  0.000000	  0.000000	  0.000000	  0.167457	  0.000000	 -0.523948	  0.000000	  0.000000	  0.000000	-165.677965	697.255271	 81.673758	  1.044241	  0.000000	 -0.391562	  0.000000	 -3.233344	  0.000000
2.724000	  0.000000	  0.000000	  0.000000	  0.169173	  0.000000	 -0.524656	  0.000000	  0.000000	  0.000000	-169.747032	718.073655	 83.638462	  1.043148	  0.000000	 -0.390941	  0.000000	 -3.373047	  0.000000
2.724500	  0.000000	  0.000000	  0.000000	  0.170890	  0.000000	 -0.525364	  0.000000	  0.000000	  0.000000	-173.828433	739.115495	 85.606466	  1.042070	  0.000000	 -0.390330	  0.000000	 -3.515438	  0.000000
2.725000	  0.000000	  0.000000	  0.000000	  0.172607	  0.000000	 -0.526072	  0.000000	  0.000000	  0.000000	-177.919375	760.370917	 87.575295	  1.041007	  0.000000	 -0.389728	  0.000000	 -3.660689	  0.000000
2.725500	  0.000000	  0.000000	  0.000000	  0.174398	  0.000000	 -0.526587	  0.000000	  0.000000	  0.000000	-182.017095	781.829881	 89.542262	  1.039957	  0.000000	 -0.389134	  0.000000	 -3.809011	  0.000000
2.726000	  0.000000	  0.000000	  0.000000	  0.176190	  0.000000	 -0.527102	  0.000000	  0.000000	  0.000000	-186.118877	803.482225	 91.504453	  1.038920	  0.000000	 -0.388547	  0.000000	 -3.960651	  0.000000
2.726500	  0.000000	  0.000000	  0.000000	  0.177981	  0.000000	 -0.527618	  0.000000	  0.000000	  0.000000	-190.222068	825.317710	 93.458720	  1.037894	  0.000000	 -0.387969	  0.000000	 -4.115894	  0.000000
2.727000	  0.000000	  0.000000	  0.000000	  0.179773	  0.000000	 -0.528133	  0.000000	  0.000000	  0.000000	-194.324090	847.326061	 95.401671	  1.036879	  0.000000	 -0.387398	  0.000000	 -4.275067	  0.000000
2.727500	  0.000000	  0.000000	  0.000000	  0.181564	  0.000000	 -0.528648	  0.000000	  0.000000	  0.000000	-198.422466	869.496996	 97.329672	  1.035873	  0.000000	 -0.386834	  0.000000	 -4.438545	  0.000000
2.728000	  0.000000	  0.000000	  0.000000	  0.183355	  0.000000	 -0.529163	  0.000000	  0.000000	  0.000000	-202.514838	891.820257	 99.238852	  1.034875	  0.000000	 -0.386277	  0.000000	 -4.606746	  0.000000
2.728500	  0.000000	  0.000000	  0.000000	  0.185147	  0.000000	 -0.529678	  0.000000	  0.000000	  0.000000	-206.598998	914.285631	101.125125	  1.033885	  0.000000	 -0.385727	  0.000000	 -4.780144	  0.000000
2.729000	  0.000000	  0.000000	  0.000000	  0.186938	  0.000000	 -0.530194	  0.000000	  0.000000	  0.000000	-210.672916	936.882973	102.984204	  1.032901	  0.000000	 -0.385185	  0.000000	 -4.959254	  0.000000
2.729500	  0.000000	  0.000000	  0.000000	  0.188730	  0.000000	 -0.530709	  0.000000	  0.000000	  0.000000	-214.734768	959.602223	104.811632	  1.031923	  0.000000	 -0.384649	  0.000000	 -5.144637	  0.000000
2.730000	  0.000000	  0.000000	  0.000000	  0.190521	  0.000000	 -0.531224	  0.000000	  0.000000	  0.000000	-218.782967	982.433438	106.602807	  1.030949	  0.000000	 -0.384120	  0.000000	 -5.336881	  0.000000
2.730500	  0.000000	  0.000000	  0.000000	  0.192603	  0.000000	 -0.531708	  0.000000	  0.000000	  0.000000	-222.816183	1005.366813	108.353010	  1.029979	  0.000000	 -0.383597	  0.000000	 -5.536591	  0.000000
2.731000	  0.000000	  0.000000	  0.000000	  0.194685	  0.000000	 -0.532192	  0.000000	  0.000000	  0.000000	-226.833362	1028.392712	110.057433	  1.029012	  0.000000	 -0.383083	  0.000000	 -5.744375	  0.000000
2.731500	  0.000000	  0.000000	  0.000000	  0.196766	  0.000000	 -0.532676	  0.000000	  0.000000	  0.000000	-230.833733	1051.501690	111.711204	  1.028047	  0.000000	 -0.382575	  0.000000	 -5.960822	  0.000000
2.732000	  0.000000	  0.000000	  0.000000	  0.198848	  0.000000	 -0.533160	  0.000000	  0.000000	  0.000000	-234.816809	1074.684499	113.309414	  1.027082	  0.000000	 -0.382074	  0.000000	 -6.186488	  0.000000
2.732500	  0.000000	  0.000000	  0.000000	  0.200930	  0.000000	 -0.533645	  0.000000	  0.000000	  0.000000	-238.782381	1097.932081	114.847147	  1.026116	  0.000000	 -0.381581	  0.000000	 -6.421874	  0.000000
2.733000	  0.000000	  0.000000	  0.000000	  0.203012	  0.000000	 -0.534129	  0.000000	  0.000000	  0.000000	-242.730507	1121.235547	116.319512	  1.025149	  0.000000	 -0.381095	  0.000000	 -6.667406	  0.000000
2.733500	  0.000000	  0.000000	  0.000000	  0.205094	  0.000000	 -0.534613	  0.000000	  0.000000	  0.000000	-246.661489	1144.586151	117.721678	  1.024180	  0.000000	 -0.380616	  0.000000	 -6.923418	  0.000000
2.734000	  0.000000	  0.000000	  0.000000	  0.207175	  0.000000	 -0.535097	  0.000000	  0.000000	  0.000000	-250.575848	1167.975256	119.048905	  1.023206	  0.000000	 -0.380144	  0.000000	 -7.190134	  0.000000
2.734500	  0.000000	  0.000000	  0.000000	  0.209257	  0.000000	 -0.535581	  0.000000	  0.000000	  0.000000	-254.474289	1191.394298	120.296576	  1.022228	  0.000000	 -0.379680	  0.000000	 -7.467655	  0.000000
2.735000	  0.000000	  0.000000	  0.000000	  0.211339	  0.000000	 -0.536065	  0.000000	  0.000000	  0.000000	-258.357653	1214.834760	121.460230	  1.021243	  0.000000	 -0.379223	  0.000000	 -7.755950	  0.000000
2.735500	  0.000000	  0.000000	  0.000000	  0.213079	  0.000000	 -0.536189	  0.000000	  0.000000	  0.000000	-262.226869	1238.288132	122.535577	  1.020251	  0.000000	 -0.378774	  0.000000	 -8.054844	  0.000000
2.736000	  0.000000	  0.000000	  0.000000	  0.214820	  0.000000	 -0.536312	  0.000000	  0.000000	  0.000000	-266.082886	1261.745888	123.518521	  1.019251	  0.000000	 -0.378332	  0.000000	 -8.364008	  0.000000
2.736500	  0.000000	  0.000000	  0.000000	  0.216560	  0.000000	 -0.536435	  0.000000	  0.000000	  0.000000	-269.926607	1285.199461	124.405167	  1.018243	  0.000000	 -0.377897	  0.000000	 -8.682953	  0.000000
2.737000	  0.000000	  0.000000	  0.000000	  0.218301	  0.000000	 -0.536559	  0.000000	  0.000000	  0.000000	-273.758809	1308.640237	125.191821	  1.017224	  0.000000	 -0.377469	  0.000000	 -9.011020	  0.000000
2.737500	  0.000000	  0.000000	  0.000000	  0.220041	  0.000000	 -0.536682	  0.000000	  0.000000	  0.000000	-277.580076	1332.059560	125.874994	  1.016196	  0.000000	 -0.377048	  0.000000	 -9.347377	  0.000000
2.738000	  0.000000	  0.000000	  0.000000	  0.221781	  0.000000	 -0.536806	  0.000000	  0.000000	  0.000000	-281.390725	1355.448750	126.451393	  1.015158	  0.000000	 -0.376635	  0.000000	 -9.691017	  0.000000
